{"title":"A Town And Country Murder S01E01 PDTV x264-TASTETV ","uid":12100068,"size":187944105,"categoryP":"video","categoryS":"tv_shows","magnet":"?xt=urn:btih:8691ba0212f79f31e0dedb9a5d9081197e0466bf&amp;dn=A+Town+And+Country+Murder+S01E01+PDTV+x264-TASTETV+&amp;tr=udp%3A%2F%2Ftracker.openbittorrent.com%3A80&amp;tr=udp%3A%2F%2Fopen.demonii.com%3A1337&amp;tr=udp%3A%2F%2Ftracker.coppersurfer.tk%3A6969&amp;tr=udp%3A%2F%2Fexodus.desync.com%3A6969","seeders":0,"leechers":0,"uploader":"Mulva1989","files":2,"time":1436274228,"description":"A Town And Country Murder S01E01 PDTV x264-TASTETV \n\nBrighton resident Jane Longhurst had a full time job as a teacher, loved music and playing the viola, and was in a stable relationship, so her disappearance in 15 March 2003 was completely out of character. \n\nSussex Police launched a huge investigation to try and find out what happened to Jane and a huge media campaign ensued. But the worst fears of friends and family were realised when the body of a woman was found 5 weeks later. \n\nWhere had Jane been during those missing weeks and who had killed her? The truth of what happened to Jane would prove darker and more twisted than anyone feared.\n\nScreens @ &lt;a href=&quot;\nhttps://yuq.me/users/50/321/VWXwPGB2g5.jpg&quot; rel=&quot;nofollow&quot; target=&quot;_NEW&quot;&gt;\nhttps://yuq.me/users/50/321/VWXwPGB2g5.jpg&lt;/a&gt; &lt;a href=&quot;\nhttps://yuq.me/users/50/321/YWC8iDKbhq.jpg&quot; rel=&quot;nofollow&quot; target=&quot;_NEW&quot;&gt;\nhttps://yuq.me/users/50/321/YWC8iDKbhq.jpg&lt;/a&gt;\n\nFormat : MPEG-4\nFormat profile : Base Media\nCodec ID : isom\nFile size : 179 MiB\nDuration : 45mn 52s\nOverall bit rate mode : Variable\nOverall bit rate : 546 Kbps\nEncoded date : UTC 2015-07-07 07:44:07\nTagged date : UTC 2015-07-07 07:44:07\n\nVideo\nID : 1\nFormat : AVC\nFormat/Info : Advanced Video Codec\nFormat profile : &lt;a class=&quot;__cf_email__&quot; href=&quot;/cdn-cgi/l/email-protection&quot; data-cfemail=&quot;470f2e202f070b746976&quot;&gt;[email&amp;#160;protected]&lt;/a&gt;&lt;script data-cfhash='f9e31' type=&quot;text/javascript&quot;&gt;\n/* &lt;![CDATA[ */!function(){try{var t=&quot;currentScript&quot;in document?document.currentScript:function(){for(var t=document.getElementsByTagName(&quot;script&quot;),e=t.length;e--;)if(t[e].getAttribute(&quot;data-cfhash&quot;))return t[e]}();if(t&amp;&amp;t.previousSibling){var e,r,n,i,c=t.previousSibling,a=c.getAttribute(&quot;data-cfemail&quot;);if(a){for(e=&quot;&quot;,r=parseInt(a.substr(0,2),16),n=2;a.length-n;n+=2)i=parseInt(a.substr(n,2),16)^r,e+=String.fromCharCode(i);e=document.createTextNode(e),c.parentNode.replaceChild(e,c)}t.parentNode.removeChild(t);}}catch(u){}}()/* ]]&gt; */&lt;/script&gt;\nFormat settings, CABAC : Yes\nFormat settings, ReFrames : 5 frames\nCodec ID : avc1\nCodec ID/Info : Advanced Video Coding\nDuration : 45mn 52s\nBit rate : 404 Kbps\nMaximum bit rate : 2 497 Kbps\nWidth : 536 pixels\nHeight : 296 pixels\nDisplay aspect ratio : 16:9\nFrame rate mode : Constant\nFrame rate : 25.000 fps\nColor space : YUV\nChroma subsampling : 4:2:0\nBit depth : 8 bits\nScan type : Progressive\nBits/(Pixel*Frame) : 0.102\nStream size : 133 MiB (74%)\nTitle : Video\nWriting library : x264 core 146 r2538 121396c\nEncoding settings : cabac=1 / ref=5 / deblock=1:0:0 / analyse=0x3:0x113 / me=umh / subme=8 / psy=1 / psy_rd=1.00:0.00 / mixed_ref=1 / me_range=16 / chroma_me=1 / trellis=1 / 8x8dct=1 / cqm=0 / deadzone=21,11 / fast_pskip=1 / chroma_qp_offset=-2 / threads=3 / lookahead_threads=1 / sliced_threads=0 / nr=0 / decimate=1 / interlaced=0 / bluray_compat=0 / constrained_intra=0 / bframes=3 / b_pyramid=2 / b_adapt=2 / b_bias=0 / direct=3 / weightb=1 / open_gop=0 / weightp=2 / keyint=250 / keyint_min=25 / scenecut=40 / intra_refresh=0 / rc_lookahead=50 / rc=crf / mbtree=1 / crf=21.0 / qcomp=0.60 / qpmin=0 / qpmax=69 / qpstep=4 / ip_ratio=1.40 / aq=1:1.00\nEncoded date : UTC 2015-07-07 07:44:07\nTagged date : UTC 2015-07-07 07:44:28\n\nAudio\nID : 2\nFormat : AAC\nFormat/Info : Advanced Audio Codec\nFormat profile : LC\nCodec ID : 40\nDuration : 45mn 51s\nBit rate mode : Variable\nBit rate : 138 Kbps\nMaximum bit rate : 197 Kbps\nChannel(s) : 2 channels\nChannel positions : Front: L R\nSampling rate : 48.0 KHz\nCompression mode : Lossy\nStream size : 45.2 MiB (25%)\nTitle : \nEncoded date : UTC 2015-07-07 07:06:47\nTagged date : UTC 2015-07-07 07:44:28","torrent":{"xt":"urn:btih:8691ba0212f79f31e0dedb9a5d9081197e0466bf","amp;dn":"A+Town+And+Country+Murder+S01E01+PDTV+x264-TASTETV+","amp;tr":["udp%3A%2F%2Ftracker.openbittorrent.com%3A80","udp%3A%2F%2Fopen.demonii.com%3A1337","udp%3A%2F%2Ftracker.coppersurfer.tk%3A6969","udp%3A%2F%2Fexodus.desync.com%3A6969"],"infoHash":"8691ba0212f79f31e0dedb9a5d9081197e0466bf","infoHashBuffer":{"type":"Buffer","data":[134,145,186,2,18,247,159,49,224,222,219,154,93,144,129,25,126,4,102,191]},"announce":[],"urlList":[]}}